{"title":"L.A. Confidential [1997] BRRip XviD - CODY","uid":7227722,"size":1075272426,"categoryP":"video","categoryS":"movies","magnet":"?xt=urn:btih:86cb864c5047fe617b66151b538c17d791b9a486&amp;dn=L.A.+Confidential+%5B1997%5D+BRRip+XviD+-+CODY&amp;tr=udp%3A%2F%2Ftracker.openbittorrent.com%3A80&amp;tr=udp%3A%2F%2Fopen.demonii.com%3A1337&amp;tr=udp%3A%2F%2Ftracker.coppersurfer.tk%3A6969&amp;tr=udp%3A%2F%2Fexodus.desync.com%3A6969","seeders":1,"leechers":0,"uploader":"CODYBOSS1969","files":5,"time":1335729534,"description":"General\nComplete name                            : L.A. Confidential [1997] BRRip XviD - CODY.avi\nFormat                                   : AVI\nFormat/Info                              : Audio Video Interleave\nFormat profile                           : OpenDML\nFormat settings                          : rec\nFile size                                : 1.00 GiB\nDuration                                 : 2h 17mn\nOverall bit rate mode                    : Variable\nOverall bit rate                         : 1 039 Kbps\nWriting application                      : AVI-Mux GUI 1.17.8.3, Feb 16 201019:42:50\n\nVideo\nID                                       : 0\nFormat                                   : MPEG-4 Visual\nFormat profile                           : Advanced Simple@L5\nFormat settings, BVOP                    : 4\nFormat settings, QPel                    : No\nFormat settings, GMC                     : No warppoints\nFormat settings, Matrix                  : Default (H.263)\nCodec ID                                 : XVID\nCodec ID/Hint                            : XviD\nDuration                                 : 2h 17mn\nBit rate                                 : 903 Kbps\nWidth                                    : 720 pixels\nHeight                                   : 296 pixels\nDisplay aspect ratio                     : 2.40:1\nFrame rate                               : 23.976 fps\nColor space                              : YUV\nChroma subsampling                       : 4:2:0\nBit depth                                : 8 bits\nScan type                                : Progressive\nCompression mode                         : Lossy\nBits/(Pixel*Frame)                       : 0.177\nStream size                              : 890 MiB (87%)\nWriting library                          : XviD 1.2.1 (UTC 2008-12-04)\n\nAudio\nID                                       : 1\nFormat                                   : MPEG Audio\nFormat version                           : Version 1\nFormat profile                           : Layer 3\nCodec ID                                 : 55\nCodec ID/Hint                            : MP3\nDuration                                 : 2h 17mn\nBit rate mode                            : Variable\nBit rate                                 : 128 Kbps\nChannel(s)                               : 2 channels\nSampling rate                            : 48.0 KHz\nCompression mode                         : Lossy\nStream size                              : 126 MiB (12%)\nAlignment                                : Aligned on interleaves\nInterleave, duration                     : 24 ms (0.58 video frame)\nInterleave, preload duration             : 174 ms\nTitle                                    : L.A. Confidential [1997] BRRip XviD - CODY\nWriting library                          : L3.99r\nEncoding settings                        : -m s -V 4 -q 2 -lowpass 17 -b 128\n\n\n\n\nIMDB link:                                &lt;a href=&quot; http://www.imdb.com/title/tt0119488/&quot; rel=&quot;nofollow&quot; target=&quot;_NEW&quot;&gt; http://www.imdb.com/title/tt0119488/&lt;/a&gt;\n\n\n\nSubtitles included                        : Romanian\n\n\n\nPlease seed at least 1,5:1 . This way this torrent has a chance to survive !!\n\n\n\nThanks . Enjoy !!!\n","torrent":{"xt":"urn:btih:86cb864c5047fe617b66151b538c17d791b9a486","amp;dn":"L.A.+Confidential+%5B1997%5D+BRRip+XviD+-+CODY","amp;tr":["udp%3A%2F%2Ftracker.openbittorrent.com%3A80","udp%3A%2F%2Fopen.demonii.com%3A1337","udp%3A%2F%2Ftracker.coppersurfer.tk%3A6969","udp%3A%2F%2Fexodus.desync.com%3A6969"],"infoHash":"86cb864c5047fe617b66151b538c17d791b9a486","infoHashBuffer":{"type":"Buffer","data":[134,203,134,76,80,71,254,97,123,102,21,27,83,140,23,215,145,185,164,134]},"announce":[],"urlList":[]}}